<?xml version="1.0" standalone="no"?>
<!DOCTYPE svg PUBLIC "-//W3C//DTD SVG 20010904//EN"
 "http://www.w3.org/TR/2001/REC-SVG-20010904/DTD/svg10.dtd">
<svg version="1.0" xmlns="http://www.w3.org/2000/svg"
 width="69.000000px" height="70.000000px" viewBox="0 0 69.000000 70.000000"
 preserveAspectRatio="xMidYMid meet">
<metadata>
Created by potrace 1.15, written by Peter Selinger 2001-2017
</metadata>
<g transform="translate(0.000000,70.000000) scale(0.100000,-0.100000)"
fill="#000000" stroke="none">
<path d="M410 592 c-40 -40 -47 -52 -43 -75 4 -22 -1 -35 -23 -58 l-28 -29
-38 37 c-21 20 -38 43 -38 49 0 7 -19 29 -42 48 l-42 36 -25 -24 -24 -25 34
-45 c19 -25 39 -44 45 -42 6 3 29 -13 50 -35 l38 -39 -29 -30 c-22 -23 -38
-30 -66 -30 -30 0 -43 -7 -77 -44 -38 -41 -40 -47 -32 -77 5 -17 12 -34 15
-37 7 -7 65 48 65 62 0 5 -10 0 -23 -12 -35 -33 -45 -27 -13 7 l28 29 39 -40
c37 -38 38 -41 22 -57 -10 -9 -26 -26 -36 -38 -18 -21 -18 -21 18 -33 36 -12
38 -11 81 31 36 35 44 50 44 79 0 27 8 43 30 65 32 31 49 29 29 -3 -10 -17
-10 -23 0 -36 8 -9 21 -16 31 -16 9 0 40 -24 69 -54 28 -30 56 -58 62 -62 12
-7 79 53 79 71 0 6 -27 37 -60 70 -33 33 -60 67 -60 76 0 9 -7 22 -15 29 -13
10 -19 10 -33 -4 -30 -27 -34 -5 -5 26 20 21 36 28 63 28 69 0 134 96 100 150
-8 12 -16 8 -48 -23 l-38 -37 -29 30 -29 30 38 39 38 38 -33 12 c-42 15 -35
17 -89 -37z m90 15 c0 -2 -15 -16 -32 -33 l-33 -29 29 33 c28 30 36 37 36 29z
m-309 -58 c16 -11 29 -28 29 -37 0 -10 43 -60 94 -111 52 -52 93 -99 90 -103
-3 -5 -49 36 -101 92 -54 56 -102 99 -109 96 -19 -7 -66 58 -51 73 14 14 14
14 48 -10z m409 -59 c0 -15 -71 -90 -85 -90 -7 0 8 22 34 49 53 56 51 54 51
41z m-185 -40 c7 -12 -2 -12 -30 0 -19 8 -19 9 2 9 12 1 25 -3 28 -9z m-4 -25
c24 -9 50 -13 58 -10 9 4 -2 -10 -24 -29 -44 -39 -51 -41 -61 -24 -4 6 -3 8 4
4 6 -3 13 -2 17 4 4 6 -7 13 -24 16 -17 4 -36 13 -42 20 -9 11 -4 11 31 -1 49
-17 64 -19 55 -6 -3 5 -19 12 -35 16 -16 4 -32 11 -35 16 -9 13 6 11 56 -6z
m-102 -69 c10 -12 8 -13 -8 -9 -12 3 -21 9 -21 14 0 14 16 11 29 -5z m25 -36
l29 -11 -30 -32 c-17 -18 -36 -41 -42 -52 -12 -19 -12 -19 -7 4 3 16 -1 29
-12 38 -15 12 -14 13 12 7 21 -5 27 -4 22 5 -4 6 -11 11 -16 11 -5 0 -21 5
-36 10 -44 17 -21 21 29 6 26 -8 49 -11 52 -6 3 4 -15 13 -40 19 -25 6 -45 14
-45 17 0 8 45 -1 84 -16z m106 -25 c-13 -14 -28 -25 -34 -25 -5 0 3 13 19 30
16 16 31 28 33 25 3 -3 -5 -16 -18 -30z m150 -129 c0 -6 -25 14 -55 44 -30 30
-55 59 -55 64 0 6 25 -14 55 -44 30 -30 55 -59 55 -64z m-200 84 c0 -5 -5 -10
-11 -10 -5 0 -7 5 -4 10 3 6 8 10 11 10 2 0 4 -4 4 -10z m132 -47 c43 -43 60
-73 41 -73 -10 0 -113 102 -113 112 0 20 28 4 72 -39z m-27 -33 c27 -27 47
-52 44 -55 -3 -2 -30 20 -59 50 -30 30 -50 55 -44 55 5 0 32 -22 59 -50z
m-231 -31 c-21 -21 -47 -39 -59 -38 l-20 0 20 9 c11 4 36 25 55 47 19 21 37
35 39 30 2 -5 -14 -26 -35 -48z"/>
</g>
</svg>
