<?xml version="1.0" standalone="no"?>
<!DOCTYPE svg PUBLIC "-//W3C//DTD SVG 20010904//EN"
 "http://www.w3.org/TR/2001/REC-SVG-20010904/DTD/svg10.dtd">
<svg version="1.0" xmlns="http://www.w3.org/2000/svg"
 width="57.000000pt" height="53.000000pt" viewBox="0 0 57.000000 53.000000"
 preserveAspectRatio="xMidYMid meet">

<g transform="translate(0.000000,53.000000) scale(0.100000,-0.100000)"
fill="#ffffff" stroke="none">
<path d="M0 265 l0 -265 285 0 285 0 0 265 0 265 -285 0 -285 0 0 -265z m392
188 c6 -7 23 -13 38 -13 29 0 40 15 40 53 1 22 1 22 20 -2 25 -30 25 -52 0
-84 -17 -22 -20 -40 -20 -140 0 -101 2 -116 20 -132 24 -22 27 -87 5 -105 -13
-10 -15 -9 -15 12 0 31 -18 48 -51 48 -28 0 -39 -15 -39 -52 0 -16 -3 -18 -14
-9 -26 22 -29 62 -7 92 18 25 21 43 21 140 0 96 -3 114 -20 136 -22 29 -26 82
-7 102 10 10 13 8 15 -11 2 -13 9 -29 14 -35z m-92 3 c0 -8 3 -21 6 -30 5 -13
-2 -16 -41 -16 -57 0 -80 -12 -100 -50 -29 -57 -25 -60 85 -60 l100 0 0 -67
c0 -90 -13 -103 -97 -103 l-63 0 0 -35 c0 -35 0 -35 -45 -35 -45 0 -45 0 -45
35 0 27 -4 35 -17 35 -16 0 -18 11 -19 85 -1 63 2 85 11 85 7 0 16 17 20 38 9
52 39 97 78 116 41 20 127 22 127 2z"/>
<path d="M410 265 c0 -108 1 -115 20 -115 19 0 20 7 20 115 0 108 -1 115 -20
115 -19 0 -20 -7 -20 -115z"/>
<path d="M100 220 c0 -30 1 -30 55 -30 51 0 55 2 55 24 0 19 -6 24 -37 30 -67
11 -73 9 -73 -24z"/>
</g>
</svg>
